<svg id="e4CpP8tnFyl1" xmlns="http://www.w3.org/2000/svg" viewBox="0 0 278.35 391.88">
  <defs>
    <style>
      .cls-1 {
        fill: #2196f3;
      }

      .cls-2 {
        fill: #136399;
        opacity: 0.3;
        isolation: isolate;
      }

      .cls-3 {
        fill: #ffde17;
      }

      .cls-4 {
        fill: #231f20;
      }

      .cls-5 {
        opacity: 0.51;
      }

      .cls-6 {
        fill: #e7e7e8;
      }
    </style>
  </defs>
  <g id="e4CpP8tnFyl2">
    <g id="e4CpP8tnFyl3">
      <g id="e4CpP8tnFyl4">
        <path id="e4CpP8tnFyl5" d="M117.63,190a4.61,4.61,0,0,0-3.61-1.31h-.3a5.78,5.78,0,0,0-5.37,5.24q-.84,14.88-1.58,29.79l-.12.93c-2,16.57-1.31,33.25-2.09,49.9-.25,5.24-.37,10.42-.39,15.57-.13,4.78-.29,9.56-.4,14.33-.08,3.53-.92,33.13.75,51.13,0,1-.07,2-.13,3a22.59,22.59,0,0,1-.32,2.73,2.35,2.35,0,0,1-.12.6c-2.8.9-9,.59-12,1.11s-9,.4-11.33,3a2.19,2.19,0,0,0,0,3c2.66,3.15,10,3.46,13.75,4.11,5,.88,12.31,1,16.93-1.48,5.08-2.72,5.06-10.77,5.22-15.64V356c.29-3.15.26-6.2.26-8.33,0-16.12-.66-32.18-.31-48.33Q117,273,117.6,246.6c.86-8.12,1.84-16.23,3-24.29C122,213.24,126.39,196.33,117.63,190Z" transform="translate(0 18.18)"/>
        <path id="e4CpP8tnFyl6" d="M194.69,364.51c-3.39-7-16.55-6.48-23.16-6.77a56.4,56.4,0,0,1-.9-6.59c-.26-2.39-.69-4.77-1.19-7.14-.1-8.41-.65-16.89-.31-25,.44-10.62,1-21.24,1.54-31.86.65-4.8,1.22-9.62,1.55-14.48,1-15.54-1.65-31.5-2.54-47-.31-5.46-1.4-11.19-1.92-16.89A68.32,68.32,0,0,1,170,192.94c1.82-6.58-7.55-10.55-11-4.63-4.94,8.55-3.44,20.54-2.86,29.94.78,12.54,2.61,24.86,2.7,37.45.14,19.48-1.29,39-1.85,58.44-.33,11.6-1.13,25.39,1.34,37.76,0,1.27.06,2.55.17,3.82.43,4.88.82,9.77,5,12.91,3.36,2.51,8.4,1.88,12.33,2.06,5.88.26,13.25-.15,18.18-3.7A1.86,1.86,0,0,0,194.69,364.51Z" transform="translate(0 18.18)"/>
      </g>
      <path id="e4CpP8tnFyl7" class="cls-1" d="M277.7,271,149.76,6.62a10.29,10.29,0,0,0-18.52-1.47L1.37,272.76A10.29,10.29,0,0,0,2.8,284.94a9.64,9.64,0,0,0,2.38,1.88,10.33,10.33,0,0,0,9.72.29l124.28-47.8L263,283.56A10.29,10.29,0,0,0,277.7,271Z" transform="translate(0 18.18)"/>
      <g id="e4CpP8tnFyl8">
        <g id="e4CpP8tnFyl9_ts" data-name="e4CpP8tnFyl9 ts">
          <path id="e4CpP8tnFyl9" d="M112.35,136.26S111.84,122,119,120.43s12.77,7.15,11.75,15.83-2,25-2,25-4.6,5.61-9.19,4.59-7.17-12.25-7.16-20.94Z" transform="translate(0 18.18)"/>
        </g>
        <g id="e4CpP8tnFyl10_ts" data-name="e4CpP8tnFyl10 ts">
          <path id="e4CpP8tnFyl10" d="M148.24,136.26s-.51-14.29,6.64-15.83,12.76,7.15,11.74,15.83-2,25-2,25-4.6,5.61-9.19,4.59-7.17-12.25-7.16-20.94Z" transform="translate(0 18.18)"/>
        </g>
      </g>
      <path id="e4CpP8tnFyl11" class="cls-2" d="M277,279.74a10.25,10.25,0,0,1-7.15,5,10.3,10.3,0,0,0-.49-5.55L141.43,14.86a10.31,10.31,0,0,0-11.81-6.39l1.61-3.32a10.3,10.3,0,0,1,18.53,1.47L277.69,271A10.28,10.28,0,0,1,277,279.74Z" transform="translate(0 18.18)"/>
    </g>
  </g>
  <g>
    <path class="cls-3" d="M143.18-11l-.08-.47a3.65,3.65,0,0,0-4.21-3l-7.22,1.21a3.66,3.66,0,0,0-4.22-3,3.67,3.67,0,0,0-3,4.22l-7.22,1.21a3.66,3.66,0,0,0-3,4.22l.08.47a47.54,47.54,0,0,0-25,50.1l93.84-15.75A47.57,47.57,0,0,0,143.18-11Z" transform="translate(0 18.18)"/>
    <path class="cls-3" d="M184.37,35.38l5.42-.9-1.21-7.22-5.42.91L89.32,43.92l-5.42.91L85.11,52l5.42-.9Z" transform="translate(0 18.18)"/>
    <path class="cls-3" d="M90.73,51.37a18.3,18.3,0,0,0,16.94,6.17L170.26,47a18.29,18.29,0,0,0,14-11.36l.11-.29L90.53,51.14Z" transform="translate(0 18.18)"/>
    <path class="cls-4" d="M188.27,25.45l-3.68.62a49.17,49.17,0,0,0-39.9-38.68,5.49,5.49,0,0,0-6.1-3.7l-5.75,1a5.46,5.46,0,0,0-7.41-2.17,5.48,5.48,0,0,0-2.75,3.87l-5.75,1a5.47,5.47,0,0,0-4.56,5.49A49.16,49.16,0,0,0,87.28,42.4L83.6,43a1.83,1.83,0,0,0-1.5,2.11l1.21,7.22a1.83,1.83,0,0,0,2.11,1.5l4.45-.75A20.19,20.19,0,0,0,108,59.34l62.58-10.5A20.25,20.25,0,0,0,185.65,37l4.44-.75a1.83,1.83,0,0,0,1.5-2.11L190.38,27A1.83,1.83,0,0,0,188.27,25.45ZM112.94-3.3l3.72,22.22a1.85,1.85,0,0,0,2.11,1.5,1.83,1.83,0,0,0,1.5-2.11L116-7a1.83,1.83,0,0,1,1.5-2.1L123-10l5.75,34.29a1.83,1.83,0,1,0,3.61-.61l-6-36.09a1.83,1.83,0,0,1,1.5-2.11,1.82,1.82,0,0,1,2.1,1.5l6.06,36.09a1.83,1.83,0,1,0,3.61-.6l-5.75-34.29,5.41-.91a1.83,1.83,0,0,1,2.11,1.5l4.24,25.27a1.83,1.83,0,1,0,3.61-.61L145.42-8.75A45.52,45.52,0,0,1,181,26.68L90.89,41.8A45.54,45.54,0,0,1,112.94-3.3Zm57,48.53-62.58,10.5a16.6,16.6,0,0,1-13-3.38l86.78-14.57A16.57,16.57,0,0,1,170,45.23ZM187.68,33l-101.06,17L86,46.33l101.06-17Z" transform="translate(0 18.18)"/>
  </g>
  <g class="cls-5">
    <path class="cls-6" d="M79.69,148.37a19,19,0,0,0,19,19h13.56a19,19,0,0,0,13.48-5.6l10-10.08a4.75,4.75,0,0,1,6.72,0l10.3,10.19a19.05,19.05,0,0,0,13.4,5.51h13.39a19,19,0,0,0,19-19V134.1a4.76,4.76,0,0,0-4.76-4.76H84.45a4.76,4.76,0,0,0-4.76,4.76Z" transform="translate(0 18.18)"/>
    <path class="cls-6" d="M198.66,134.1h9.52v9.51h-9.52Z" transform="translate(0 18.18)"/>
    <path class="cls-6" d="M70.17,134.1h9.52v9.51H70.17Z" transform="translate(0 18.18)"/>
  </g>
  <path class="cls-4" d="M208.18,131.72H200.6a7.13,7.13,0,0,0-6.7-4.76H84.45a7.15,7.15,0,0,0-6.7,4.76H70.17a2.37,2.37,0,0,0-2.37,2.38v9.51A2.37,2.37,0,0,0,70.17,146h7.14v2.38a21.46,21.46,0,0,0,21.42,21.42h13.56a21.27,21.27,0,0,0,15.16-6.3l10.06-10.08a2.39,2.39,0,0,1,3.36,0l10.31,10.19a21.29,21.29,0,0,0,15.06,6.19h13.39A21.44,21.44,0,0,0,201,148.37V146h7.14a2.38,2.38,0,0,0,2.38-2.38V134.1a2.38,2.38,0,0,0-2.38-2.38ZM72.55,141.23v-4.75h4.76v4.75Zm123.73,7.14A16.67,16.67,0,0,1,179.63,165H166.24a16.56,16.56,0,0,1-11.72-4.82L144.22,150a7.14,7.14,0,0,0-10.08,0l-10,10.08a16.55,16.55,0,0,1-11.8,4.9H98.73a16.67,16.67,0,0,1-16.66-16.66V134.1a2.38,2.38,0,0,1,2.38-2.38H193.9a2.37,2.37,0,0,1,2.38,2.38Zm9.52-7.14H201v-4.75h4.76Z" transform="translate(0 18.18)"/>
</svg>
