<svg id="e4CpP8tnFyl1" xmlns="http://www.w3.org/2000/svg" viewBox="0 0 278.35 378.4">
  <defs>
    <style>
      .cls-1 {
        fill: #2196f3;
      }

      .cls-2 {
        fill: #136399;
        opacity: 0.3;
        isolation: isolate;
      }

      .cls-3 {
        fill: #ffde17;
      }

      .cls-4 {
        fill: #231f20;
      }

      .cls-5 {
        opacity: 0.51;
      }

      .cls-6 {
        fill: #e7e7e8;
      }

      .cls-7, .cls-9 {
        fill: #fff;
      }

      .cls-7, .cls-8 {
        stroke: #000;
        stroke-miterlimit: 10;
      }

      .cls-8 {
        fill: none;
      }
    </style>
  </defs>
  <g id="e4CpP8tnFyl4">
    <path id="e4CpP8tnFyl5" d="M117.63,190a4.61,4.61,0,0,0-3.61-1.31h-.3a5.78,5.78,0,0,0-5.37,5.24q-.84,14.88-1.58,29.79l-.12.93c-2,16.57-1.31,33.25-2.09,49.9-.25,5.24-.37,10.42-.39,15.57-.13,4.78-.29,9.56-.4,14.33-.08,3.53-.92,33.13.75,51.13,0,1-.07,2-.13,3a22.59,22.59,0,0,1-.32,2.73,2.35,2.35,0,0,1-.12.6c-2.8.9-9,.59-12,1.11s-9,.4-11.33,3a2.19,2.19,0,0,0,0,3c2.66,3.15,10,3.46,13.75,4.11,5,.88,12.31,1,16.93-1.48,5.08-2.72,5.06-10.77,5.22-15.64V356c.29-3.15.26-6.2.26-8.33,0-16.12-.66-32.18-.31-48.33Q117,273,117.6,246.6c.86-8.12,1.84-16.23,3-24.29C122,213.24,126.39,196.33,117.63,190Z" transform="translate(0 4.7)"/>
    <path id="e4CpP8tnFyl6" d="M194.69,364.51c-3.39-7-16.55-6.48-23.16-6.77a56.4,56.4,0,0,1-.9-6.59c-.26-2.39-.69-4.77-1.19-7.14-.1-8.41-.65-16.89-.31-25,.44-10.62,1-21.24,1.54-31.86.65-4.8,1.22-9.62,1.55-14.48,1-15.54-1.65-31.5-2.54-47-.31-5.46-1.4-11.19-1.92-16.89A68.32,68.32,0,0,1,170,192.94c1.82-6.58-7.55-10.55-11-4.63-4.94,8.55-3.44,20.54-2.86,29.94.78,12.54,2.61,24.86,2.7,37.45.14,19.48-1.29,39-1.85,58.44-.33,11.6-1.13,25.39,1.34,37.76,0,1.27.06,2.55.17,3.82.43,4.88.82,9.77,5,12.91,3.36,2.51,8.4,1.88,12.33,2.06,5.88.26,13.25-.15,18.18-3.7A1.86,1.86,0,0,0,194.69,364.51Z" transform="translate(0 4.7)"/>
  </g>
  <path id="e4CpP8tnFyl7" class="cls-1" d="M277.7,271,149.76,6.62a10.29,10.29,0,0,0-18.52-1.47L1.37,272.76A10.29,10.29,0,0,0,2.8,284.94a9.64,9.64,0,0,0,2.38,1.88,10.33,10.33,0,0,0,9.72.29l124.28-47.8L263,283.56A10.29,10.29,0,0,0,277.7,271Z" transform="translate(0 4.7)"/>
  <g id="eye">
    <g id="e4CpP8tnFyl9_ts" data-name="e4CpP8tnFyl9 ts">
      <path id="e4CpP8tnFyl9" d="M112.35,136.26S111.84,122,119,120.43s12.77,7.15,11.75,15.83-2,25-2,25-4.6,5.61-9.19,4.59-7.17-12.25-7.16-20.94Z" transform="translate(0 4.7)"/>
    </g>
    <g id="e4CpP8tnFyl10_ts" data-name="e4CpP8tnFyl10 ts">
      <path id="e4CpP8tnFyl10" d="M148.24,136.26s-.51-14.29,6.64-15.83,12.76,7.15,11.74,15.83-2,25-2,25-4.6,5.61-9.19,4.59-7.17-12.25-7.16-20.94Z" transform="translate(0 4.7)"/>
    </g>
  </g>
  <path id="e4CpP8tnFyl11" class="cls-2" d="M277,279.74a10.25,10.25,0,0,1-7.15,5,10.3,10.3,0,0,0-.49-5.55L141.43,14.86a10.31,10.31,0,0,0-11.81-6.39l1.61-3.32a10.3,10.3,0,0,1,18.53,1.47L277.69,271A10.28,10.28,0,0,1,277,279.74Z" transform="translate(0 4.7)"/>
  <g>
    <path class="cls-3" d="M142.23.66,142.17.3A2.75,2.75,0,0,0,139-1.95L133.58-1a2.76,2.76,0,0,0-3.17-2.25,2.75,2.75,0,0,0-2.26,3.16l-5.43.91A2.76,2.76,0,0,0,120.46,4l.06.35a35.68,35.68,0,0,0-18.8,37.59L172.27,30A35.67,35.67,0,0,0,142.23.66Z" transform="translate(0 4.7)"/>
    <path class="cls-3" d="M173.18,35.46l4.07-.69-.91-5.41-4.07.68L101.72,41.89l-4.07.68L98.56,48l4.07-.68Z" transform="translate(0 4.7)"/>
    <path class="cls-3" d="M102.78,47.48a13.77,13.77,0,0,0,12.74,4.62l47.05-7.9a13.78,13.78,0,0,0,10.53-8.53l.08-.21L102.63,47.3Z" transform="translate(0 4.7)"/>
    <path class="cls-4" d="M176.12,28l-2.77.46a36.89,36.89,0,0,0-30-29,4.12,4.12,0,0,0-4.58-2.77l-4.32.72a4.12,4.12,0,0,0-5.57-1.62,4.14,4.14,0,0,0-2.08,2.91l-4.32.72a4.14,4.14,0,0,0-3.43,4.12,36.88,36.88,0,0,0-18.87,37.2l-2.77.47a1.37,1.37,0,0,0-1.13,1.58l.91,5.41a1.38,1.38,0,0,0,1.58,1.13l3.35-.56a15.22,15.22,0,0,0,13.62,4.67l47-7.9a15.18,15.18,0,0,0,11.35-8.86l3.34-.56a1.38,1.38,0,0,0,1.13-1.58l-.91-5.42A1.37,1.37,0,0,0,176.12,28ZM119.49,6.46l2.8,16.67a1.37,1.37,0,0,0,2.71-.46l-3.18-19A1.37,1.37,0,0,1,123,2.14L127,1.46l4.32,25.71a1.37,1.37,0,1,0,2.71-.45L129.51-.35a1.38,1.38,0,0,1,1.12-1.59,1.39,1.39,0,0,1,1.59,1.13l4.54,27.07a1.38,1.38,0,0,0,2.72-.45L135.16.09l4.07-.68A1.36,1.36,0,0,1,140.81.53l3.18,19a1.38,1.38,0,0,0,2.72-.45l-2.8-16.67a34.18,34.18,0,0,1,26.73,26.57L102.9,40.3A34.17,34.17,0,0,1,119.49,6.46Zm42.85,36.38-47,7.9a12.5,12.5,0,0,1-9.78-2.53l65.24-11A12.43,12.43,0,0,1,162.34,42.84Zm13.33-9.19-76,12.75-.46-2.71,76-12.75Z" transform="translate(0 4.7)"/>
  </g>
  <g class="cls-5">
    <path class="cls-6" d="M79.69,148.37a19,19,0,0,0,19,19h13.56a19,19,0,0,0,13.48-5.6l10-10.08a4.75,4.75,0,0,1,6.72,0l10.3,10.19a19.05,19.05,0,0,0,13.4,5.51h13.39a19,19,0,0,0,19-19V134.1a4.76,4.76,0,0,0-4.76-4.76H84.45a4.76,4.76,0,0,0-4.76,4.76Z" transform="translate(0 4.7)"/>
    <path class="cls-6" d="M198.66,134.1h9.52v9.51h-9.52Z" transform="translate(0 4.7)"/>
    <path class="cls-6" d="M70.17,134.1h9.52v9.51H70.17Z" transform="translate(0 4.7)"/>
  </g>
  <path class="cls-4" d="M208.18,131.72H200.6a7.13,7.13,0,0,0-6.7-4.76H84.45a7.15,7.15,0,0,0-6.7,4.76H70.17a2.37,2.37,0,0,0-2.37,2.38v9.51A2.37,2.37,0,0,0,70.17,146h7.14v2.38a21.46,21.46,0,0,0,21.42,21.42h13.56a21.27,21.27,0,0,0,15.16-6.3l10.06-10.08a2.39,2.39,0,0,1,3.36,0l10.31,10.19a21.29,21.29,0,0,0,15.06,6.19h13.39A21.44,21.44,0,0,0,201,148.37V146h7.14a2.38,2.38,0,0,0,2.38-2.38V134.1a2.38,2.38,0,0,0-2.38-2.38ZM72.55,141.23v-4.75h4.76v4.75Zm123.73,7.14A16.67,16.67,0,0,1,179.63,165H166.24a16.56,16.56,0,0,1-11.72-4.82L144.22,150a7.14,7.14,0,0,0-10.08,0l-10,10.08a16.55,16.55,0,0,1-11.8,4.9H98.73a16.67,16.67,0,0,1-16.66-16.66V134.1a2.38,2.38,0,0,1,2.38-2.38H193.9a2.37,2.37,0,0,1,2.38,2.38Zm9.52-7.14H201v-4.75h4.76Z" transform="translate(0 4.7)"/>
  <g id="map">
    <g>
      <path class="cls-7" d="M225.62,89.24V246.86c0,6.09-4.33,12.14-9.68,13.52l-54.85,14.09v-.38l-31.5-5.83-11.81-2.19-25.9-4.81L59,270.56c-5.34,1.51-9.68-2.2-9.68-8.29V104.65c0-6.09,4.34-12.25,9.68-13.76l32.92-9.3,56.79,10.53,11.81,2.19.61.11v.38l54.85-14.1C221.29,79.33,225.62,83.15,225.62,89.24Z" transform="translate(0 4.7)"/>
      <line class="cls-8" x1="91.88" y1="86.29" x2="91.88" y2="265.96"/>
      <line class="cls-8" x1="161.08" y1="99.12" x2="161.08" y2="279.17"/>
    </g>
    <g>
      <path d="M229.85,189.23a5.86,5.86,0,0,0-1.68-3.65c-.07-.07-.16-.13-.24-.2l0,0c.93-.9,1.35-3.7,1.35-3.7l-.06-1a5.66,5.66,0,0,0-1-2.85,4.46,4.46,0,0,0,1.39-.91,4.66,4.66,0,0,0,1.35-3.69l-.07-1a5.86,5.86,0,0,0-1.68-3.65c-.11-.11-.24-.2-.36-.3a4.69,4.69,0,0,0,1.26-3.58l-.07-1a6,6,0,0,0-5.53-5.42l-2.42-.1-2.83-.13-5-.21a4.61,4.61,0,0,0-3.47,1.29,4.67,4.67,0,0,0-1.35,3.69l.07,1a5.59,5.59,0,0,0,.84,2.55,4.55,4.55,0,0,0-2.13,1.14,4.65,4.65,0,0,0-1.35,3.69l.06,1a5.86,5.86,0,0,0,1.68,3.64,6.15,6.15,0,0,0,1.77,1.26,4.8,4.8,0,0,0-.63,2.74l.07,1a5.84,5.84,0,0,0,1.67,3.64,5.92,5.92,0,0,0,2.72,1.59,4.81,4.81,0,0,0-.51,2.49l.06,1a5.88,5.88,0,0,0,1.68,3.64,5.8,5.8,0,0,0,3.86,1.77l4.42.19,2.81-.12a4.42,4.42,0,0,0,2-1.11,4.59,4.59,0,0,0,1.35-3.69ZM212.9,161.31a2.07,2.07,0,0,1,1.57-.58l10.25.43a2.73,2.73,0,0,1,2.52,2.47l.06,1a4,4,0,0,1-.62,1.67,2,2,0,0,1-1.2.57l-11.06-.48a2.7,2.7,0,0,1-1.31-.74,2.67,2.67,0,0,1-.76-1.65l-.07-1A2.12,2.12,0,0,1,212.9,161.31Zm2.28,22.09a2.59,2.59,0,0,1-1.75-.81,2.65,2.65,0,0,1-.77-1.65l-.07-1a2.12,2.12,0,0,1,.62-1.68,2.06,2.06,0,0,1,1.38-.57l9.51.4a2.68,2.68,0,0,1,2.34,2.44l.07,1a2.09,2.09,0,0,1-.62,1.68,2.12,2.12,0,0,1-1.57.59Zm11.29,8.36a2.07,2.07,0,0,1-1.57.58l-5.77-.24a2.63,2.63,0,0,1-1.76-.81,2.67,2.67,0,0,1-.76-1.65l-.07-1a2.16,2.16,0,0,1,.62-1.68,2.07,2.07,0,0,1,1.57-.58l5.78.24a2.71,2.71,0,0,1,2.51,2.47l.07,1A2.09,2.09,0,0,1,226.47,191.76Zm-.51-16.4-13.67-.58a2.69,2.69,0,0,1-2.51-2.46l-.07-1h0a2.08,2.08,0,0,1,2.19-2.26s13.64.6,13.77.59a2.73,2.73,0,0,1,2.42,2.45l.06,1a2.07,2.07,0,0,1-.62,1.67A2.1,2.1,0,0,1,226,175.36Z" transform="translate(0 4.7)"/>
      <path class="cls-9" d="M227.09,190.08a2.07,2.07,0,0,1-2.19,2.26l-5.77-.24a2.63,2.63,0,0,1-1.76-.81,2.67,2.67,0,0,1-.76-1.65l-.07-1a2.16,2.16,0,0,1,.62-1.68,2.07,2.07,0,0,1,1.57-.58l5.78.24a2.71,2.71,0,0,1,2.51,2.47Z" transform="translate(0 4.7)"/>
      <path class="cls-9" d="M226.51,181.52a2.09,2.09,0,0,1-.62,1.68,2.12,2.12,0,0,1-1.57.59l-9.14-.39a2.59,2.59,0,0,1-1.75-.81,2.65,2.65,0,0,1-.77-1.65l-.07-1a2.12,2.12,0,0,1,.62-1.68,2.06,2.06,0,0,1,1.38-.57l9.51.4a2.68,2.68,0,0,1,2.34,2.44Z" transform="translate(0 4.7)"/>
      <path class="cls-9" d="M228.15,173.1a2.07,2.07,0,0,1-.62,1.67,2.1,2.1,0,0,1-1.57.59l-13.67-.58a2.69,2.69,0,0,1-2.51-2.46l-.07-1h0a2.08,2.08,0,0,1,2.19-2.26s13.64.6,13.77.59a2.73,2.73,0,0,1,2.42,2.45Z" transform="translate(0 4.7)"/>
      <path class="cls-9" d="M227.3,164.6a4,4,0,0,1-.62,1.67,2,2,0,0,1-1.2.57l-11.06-.48a2.7,2.7,0,0,1-1.31-.74,2.67,2.67,0,0,1-.76-1.65l-.07-1a2.12,2.12,0,0,1,.62-1.68,2.07,2.07,0,0,1,1.57-.58l10.25.43a2.73,2.73,0,0,1,2.52,2.47Z" transform="translate(0 4.7)"/>
    </g>
    <g>
      <path d="M41.89,162.45a5.84,5.84,0,0,0,1.79,3.6c.07.07.16.13.24.2l-.05,0c-.9.92-1.24,3.73-1.24,3.73l.09,1a5.58,5.58,0,0,0,1.11,2.82,4.55,4.55,0,0,0-1.37.95,4.68,4.68,0,0,0-1.24,3.73l.1,1a5.87,5.87,0,0,0,1.78,3.61c.11.1.25.19.37.28A4.68,4.68,0,0,0,42.31,187l.1,1a5.75,5.75,0,0,0,1.78,3.59,5.83,5.83,0,0,0,3.9,1.67l2.42,0,2.83.05,5,.07A4.61,4.61,0,0,0,61.78,192,4.66,4.66,0,0,0,63,188.22l-.09-1a5.49,5.49,0,0,0-.92-2.52,4.48,4.48,0,0,0,3.35-4.93l-.09-1a5.86,5.86,0,0,0-1.79-3.59,6.13,6.13,0,0,0-1.8-1.21,4.76,4.76,0,0,0,.55-2.75l-.1-1a5.81,5.81,0,0,0-1.77-3.59,6,6,0,0,0-2.76-1.52,4.84,4.84,0,0,0,.44-2.5l-.09-1a5.91,5.91,0,0,0-1.79-3.59,5.78,5.78,0,0,0-3.9-1.66l-4.43-.06-2.8.2a4.31,4.31,0,0,0-2,1.17,4.57,4.57,0,0,0-1.25,3.72Zm17.74,27.43a2.08,2.08,0,0,1-1.55.62l-10.26-.14A2.74,2.74,0,0,1,45.23,188l-.09-1a4.06,4.06,0,0,1,.57-1.69,2,2,0,0,1,1.19-.6l11.07.16a2.81,2.81,0,0,1,1.33.7,2.64,2.64,0,0,1,.8,1.63l.1,1A2.13,2.13,0,0,1,59.63,189.88Zm-2.91-22a2.56,2.56,0,0,1,1.77.76,2.64,2.64,0,0,1,.82,1.63l.1,1a2.1,2.1,0,0,1-.57,1.69,2,2,0,0,1-1.37.61L48,173.4a2.66,2.66,0,0,1-1.61-.73,2.69,2.69,0,0,1-.8-1.64l-.1-1a2.06,2.06,0,0,1,.57-1.69,2.09,2.09,0,0,1,1.55-.64Zm-11.52-8a2,2,0,0,1,1.55-.63l5.78.08a2.7,2.7,0,0,1,2.58,2.38l.1,1a2.15,2.15,0,0,1-.57,1.7,2,2,0,0,1-1.55.62l-5.79-.07a2.64,2.64,0,0,1-1.77-.76,2.68,2.68,0,0,1-.81-1.64l-.09-1A2.06,2.06,0,0,1,45.2,159.83Zm1,16.37,13.68.2a2.67,2.67,0,0,1,1.77.74,2.7,2.7,0,0,1,.81,1.64l.09,1h0a2.07,2.07,0,0,1-2.12,2.32s-13.65-.21-13.78-.2a2.73,2.73,0,0,1-2.49-2.38l-.09-1a2.09,2.09,0,0,1,.57-1.69A2.14,2.14,0,0,1,46.18,176.2Z" transform="translate(0 4.7)"/>
      <path class="cls-9" d="M44.63,161.52a2.07,2.07,0,0,1,2.12-2.32l5.78.08a2.7,2.7,0,0,1,2.58,2.38l.1,1a2.15,2.15,0,0,1-.57,1.7,2,2,0,0,1-1.55.62l-5.79-.07a2.64,2.64,0,0,1-1.77-.76,2.68,2.68,0,0,1-.81-1.64Z" transform="translate(0 4.7)"/>
      <path class="cls-9" d="M45.45,170.06a2.06,2.06,0,0,1,.57-1.69,2.09,2.09,0,0,1,1.55-.64l9.15.13a2.56,2.56,0,0,1,1.77.76,2.64,2.64,0,0,1,.82,1.63l.1,1a2.1,2.1,0,0,1-.57,1.69,2,2,0,0,1-1.37.61L48,173.4a2.66,2.66,0,0,1-1.61-.73,2.69,2.69,0,0,1-.8-1.64Z" transform="translate(0 4.7)"/>
      <path class="cls-9" d="M44.05,178.53a2.09,2.09,0,0,1,.57-1.69,2.14,2.14,0,0,1,1.56-.64l13.68.2a2.67,2.67,0,0,1,1.77.74,2.7,2.7,0,0,1,.81,1.64l.09,1h0a2.07,2.07,0,0,1-2.12,2.32s-13.65-.21-13.78-.2a2.73,2.73,0,0,1-2.49-2.38Z" transform="translate(0 4.7)"/>
      <path class="cls-9" d="M45.14,187a4.06,4.06,0,0,1,.57-1.69,2,2,0,0,1,1.19-.6l11.07.16a2.81,2.81,0,0,1,1.33.7,2.64,2.64,0,0,1,.8,1.63l.1,1a2.13,2.13,0,0,1-.57,1.7,2.08,2.08,0,0,1-1.55.62l-10.26-.14A2.74,2.74,0,0,1,45.23,188Z" transform="translate(0 4.7)"/>
    </g>
  </g>
</svg>
