<svg id="eye" xmlns="http://www.w3.org/2000/svg" viewBox="0 0 428.26 348.71">

  <path class="ps-1" d="M214.12,201.71" transform="translate(0.01 -39.75)"/>
  <g>
    <path class="ps-1" d="M214.11,161.9h0a39.81,39.81,0,1,0,0,79.62c22.17,0,40.22-17.86,40.22-39.81S236.28,161.9,214.11,161.9Zm.32,60.44a20.63,20.63,0,0,1-.32-41.26v0a20.64,20.64,0,0,1,.32,41.28Z" transform="translate(0.01 -39.75)"/>
    <path class="ps-1" d="M214.11,161.9h0a39.81,39.81,0,1,0,0,79.62c22.17,0,40.22-17.86,40.22-39.81S236.28,161.9,214.11,161.9Zm.32,60.44a20.63,20.63,0,0,1-.32-41.26v0a20.64,20.64,0,0,1,.32,41.28Z" transform="translate(0.01 -39.75)"/>
    <g>
      <path class="ps-1" d="M214.11,161.9h0a39.81,39.81,0,1,0,0,79.62c22.17,0,40.22-17.86,40.22-39.81S236.28,161.9,214.11,161.9Zm.32,60.44a20.63,20.63,0,0,1-.32-41.26v0a20.64,20.64,0,0,1,.32,41.28Zm-.32-60.44h0a39.81,39.81,0,1,0,0,79.62c22.17,0,40.22-17.86,40.22-39.81S236.28,161.9,214.11,161.9Zm.32,60.44a20.63,20.63,0,0,1-.32-41.26v0a20.64,20.64,0,0,1,.32,41.28ZM425.83,195c-21.16-25.53-52.72-50.55-86.72-68.65C298.17,104.53,255,93,214.11,93c-87.4,0-171,52.87-211.71,102a10.52,10.52,0,0,0,0,13.41c21.33,25.81,53.26,51,87.48,69.09,40.72,21.53,83.68,32.91,124.23,32.91,41.41,0,85.11-11.78,126.4-34.1,33.46-18.1,64.56-42.9,85.32-67.9A10.52,10.52,0,0,0,425.83,195ZM124.32,270.45c-35.44-14.87-70.2-38.79-97.89-67.35l-1.35-1.39,1.35-1.39c12.92-13.26,48.3-46.48,97.9-67.35l7-2.91-4.61,6a108,108,0,0,0,0,131.31l4.6,6Zm89.79,18.79c-48.72,0-88.36-39.27-88.36-87.53s39.64-87.53,88.36-87.53,88.36,39.27,88.36,87.53S262.83,289.24,214.11,289.24Zm187.71-86.11c-12.9,13.3-48.31,46.47-97.9,67.37l-7,2.94,4.61-6a108,108,0,0,0,0-131.38l-4.6-6,7,2.92c35.43,14.88,70.2,38.78,97.89,67.34l1.35,1.4ZM214.11,161.9h0a39.81,39.81,0,1,0,0,79.62c22.17,0,40.22-17.86,40.22-39.81S236.28,161.9,214.11,161.9Zm.32,60.44a20.63,20.63,0,0,1-.32-41.26v0a20.64,20.64,0,0,1,.32,41.28Zm-.32-60.44h0a39.81,39.81,0,1,0,0,79.62c22.17,0,40.22-17.86,40.22-39.81S236.28,161.9,214.11,161.9Zm.32,60.44a20.63,20.63,0,0,1-.32-41.26v0a20.64,20.64,0,0,1,.32,41.28Zm-.32-60.44h0a39.81,39.81,0,1,0,0,79.62c22.17,0,40.22-17.86,40.22-39.81S236.28,161.9,214.11,161.9Zm.32,60.44a20.63,20.63,0,0,1-.32-41.26v0a20.64,20.64,0,0,1,.32,41.28Z" transform="translate(0.01 -39.75)"/>
      <path class="ps-1" d="M214.11,161.9h0a39.81,39.81,0,1,0,0,79.62c22.17,0,40.22-17.86,40.22-39.81S236.28,161.9,214.11,161.9Zm.32,60.44a20.63,20.63,0,0,1-.32-41.26v0a20.64,20.64,0,0,1,.32,41.28Z" transform="translate(0.01 -39.75)"/>
    </g>
    <path class="ps-1" d="M214.11,161.9h0a39.81,39.81,0,1,0,0,79.62c22.17,0,40.22-17.86,40.22-39.81S236.28,161.9,214.11,161.9Zm.32,60.44a20.63,20.63,0,0,1-.32-41.26v0a20.64,20.64,0,0,1,.32,41.28Z" transform="translate(0.01 -39.75)"/>
    <path class="ps-1" d="M214.11,161.9h0a39.81,39.81,0,1,0,0,79.62c22.17,0,40.22-17.86,40.22-39.81S236.28,161.9,214.11,161.9Zm.32,60.44a20.63,20.63,0,0,1-.32-41.26v0a20.64,20.64,0,0,1,.32,41.28Z" transform="translate(0.01 -39.75)"/>
    <path class="ps-1" d="M214.11,161.9h0a39.81,39.81,0,1,0,0,79.62c22.17,0,40.22-17.86,40.22-39.81S236.28,161.9,214.11,161.9Zm.32,60.44a20.63,20.63,0,0,1-.32-41.26v0a20.64,20.64,0,0,1,.32,41.28Z" transform="translate(0.01 -39.75)"/>
    <path class="ps-1" d="M214.11,161.9h0a39.81,39.81,0,1,0,0,79.62c22.17,0,40.22-17.86,40.22-39.81S236.28,161.9,214.11,161.9Zm.32,60.44a20.63,20.63,0,0,1-.32-41.26v0a20.64,20.64,0,0,1,.32,41.28Z" transform="translate(0.01 -39.75)"/>
    <path class="ps-1" d="M214.11,161.9h0a39.81,39.81,0,1,0,0,79.62c22.17,0,40.22-17.86,40.22-39.81S236.28,161.9,214.11,161.9Zm.32,60.44a20.63,20.63,0,0,1-.32-41.26v0a20.64,20.64,0,0,1,.32,41.28Z" transform="translate(0.01 -39.75)"/>
  </g>
  <g>
    <line id="white-line" class="ps-2" x1="387.88" y1="27.79" x2="79.96" y2="335.71"/>
    <line id="blue-line" class="ps-3" x1="373.09" y1="13" x2="65.17" y2="320.91"/>
  </g>
</svg>
