<svg id="Layer_1" data-name="Layer 1" xmlns="http://www.w3.org/2000/svg" viewBox="0 0 382.05 352.54">
  <defs>
    <style>
      .cls-1 {
        fill: #9acd8d;
      }
    </style>
  </defs>
  <g>
    <path class="cls-1" d="M84.2,329.2c-20.61-1.16-40.09-11-54.86-27.68A88.08,88.08,0,0,1,7,243.29a82.1,82.1,0,0,1,33.8-66.14l2.06-1.5-.48-2.5a62.83,62.83,0,0,1-1.21-12.07A57.9,57.9,0,0,1,99,103.24a60.47,60.47,0,0,1,11.13,1.05l2.8.53,1.41-2.47a109,109,0,0,1,201.93,36.21l.43,2.55,2.49.65C359.6,152.4,389,191.19,389.05,234a96,96,0,0,1-25.11,64.68,92,92,0,0,1-61.51,30.45H242.26a6.83,6.83,0,1,1,0-13.65h59.42c40.65-3.13,73.71-39.67,73.71-81.47,0-39.54-28.36-74.2-66-80.63a6.83,6.83,0,0,1-5.68-6.07A95.32,95.32,0,0,0,122.66,115.9a6.88,6.88,0,0,1-8.57,3.48A43.38,43.38,0,0,0,99,116.73a44.24,44.24,0,0,0-44.19,44.19,43.63,43.63,0,0,0,2.66,15.18,6.93,6.93,0,0,1-3,8.3,68.37,68.37,0,0,0-33.83,58.81c0,37.08,29.37,70.2,64.15,72.33h68.9a6.83,6.83,0,1,1,0,13.65Z" transform="translate(-7 -47.73)"/>
    <path class="cls-1" d="M198,400.27a6.75,6.75,0,0,1-6.82-6.83V205l-45.73,45.73a6.67,6.67,0,0,1-4.79,2,7,7,0,0,1-4.8-2,6.78,6.78,0,0,1,0-9.67l57.34-57.34a6.64,6.64,0,0,1,4.79-2,7,7,0,0,1,4.8,2l57.35,57.35a6.85,6.85,0,0,1-4.83,11.68,6.57,6.57,0,0,1-4.73-2L204.85,205V393.44A6.76,6.76,0,0,1,198,400.27Z" transform="translate(-7 -47.73)"/>
  </g>
</svg>
