<?xml version="1.0" encoding="utf-8"?>
<!-- Generator: Adobe Illustrator 25.0.0, SVG Export Plug-In . SVG Version: 6.00 Build 0)  -->
<svg version="1.1" id="Layer_1" xmlns="http://www.w3.org/2000/svg" xmlns:xlink="http://www.w3.org/1999/xlink" x="0px" y="0px"
	 viewBox="0 0 463.5 287.6" style="enable-background:new 0 0 463.5 287.6;" xml:space="preserve">
<style type="text/css">
	.st0{fill:#E9011B;}
	.st1{fill:#F69E1A;}
	.st2{fill:#FE5F01;}
	.st3{fill:#EA2128;}
	.st4{fill:#F6A125;}
	.st5{fill:#9A9A98;}
</style>
<path class="st0" d="M231.7,256.1c-22.2,17-47.2,27.4-75,29.8c-36.8,3.1-70.4-6-99.9-28.5C26,233.9,7.3,202.8,1.7,164.6
	c-5.9-40.8,3.8-77.9,29.7-110.4c23.9-30,55.3-47.2,93.1-52.8c1.8-0.3,3.6-0.2,5.5-0.3c8.6,1.4,17.3,1.4,25.9-0.1
	c25.2,1.7,47.9,10.4,68.7,24.5c2.5,1.7,4.7,3.6,7.1,5.4c-7.7,6.1-14.7,12.9-21,20.3c-21.3,25.3-32.2,54.6-33.6,87.4
	c-0.8,19.3,2.5,38.5,9.7,56.4c9.5,24.1,24.2,44.4,44.9,60.2C231.6,255.6,231.6,255.9,231.7,256.1z"/>
<path class="st1" d="M231.7,256.1c0-0.3,0-0.5,0-0.8c1.3-0.6,2.6-1.4,3.8-2.3c9.1-8.7,18.3-17.3,25.4-27.9
	c21-31.4,29.6-65.6,23.9-103.2c-4.7-30.6-18.1-56.7-39.5-79c-4-4.2-9.2-7.1-12.6-11.9c7.2-7.2,16.1-11.8,25.1-16.2
	C271.3,8.1,285.5,3.3,300.6,2c2.2,1.2,4.4,2.4,6-0.8l3-0.2c6.9,1.6,14.1,1.6,21,0c27.2,1.1,51.7,10.6,73.5,26.4
	c30.2,21.9,49.6,51.3,56.5,88c8.5,44.7-1.8,85.1-31,120.2c-22.9,27.4-52.4,43.9-87.5,49.2c-38.3,5.7-73.7-2.7-105.5-25.3
	L231.7,256.1z"/>
<path class="st2" d="M232.7,30.9c3.4,4.8,8.5,7.8,12.6,11.9c21.4,22.3,34.8,48.4,39.5,79c5.7,37.6-2.9,71.8-23.9,103.2
	c-7.1,10.5-16.3,19.1-25.4,27.9c-1.2,0.9-2.4,1.7-3.8,2.3c-20.7-15.8-35.3-36.1-44.9-60.2c-7.2-17.9-10.5-37.1-9.8-56.3
	c1.4-32.8,12.4-62.1,33.6-87.4c6.3-7.5,13.3-14.3,21-20.3C232,31,232.3,31,232.7,30.9z"/>
<path class="st3" d="M155.9,1.1c-8.6,1.5-17.4,1.5-25.9,0.1C138.5-0.3,147.3-0.4,155.9,1.1z"/>
<path class="st4" d="M330.5,1c-6.9,1.6-14.1,1.6-21,0C316.5-0.4,323.6-0.4,330.5,1z"/>
<path class="st4" d="M306.6,1.2c-1.6,3.3-3.8,2-6,0.8C302.4,0.7,304.5,1.1,306.6,1.2z"/>
<path class="st5" d="M471.9,410.9c0.1,0.8-0.3,1.2-1.1,1l0.1,0.1C470.8,411.2,471.2,411,471.9,410.9L471.9,410.9z"/>
</svg>
