<svg id="Layer_1" data-name="Layer 1" xmlns="http://www.w3.org/2000/svg" viewBox="0 0 45.11 14.63">
  <defs>
    <style>
      .cls-1 {
        fill: #fff;
      }
    </style>
  </defs>
  <g>
    <path class="cls-1" d="M114.75,21.64a.22.22,0,0,1-.11,0h-3.18c-.09,0-.09,0-.1-.09s-.07-.31-.1-.46c-.11-.5-.21-1-.31-1.49,0-.1,0-.1-.14-.1h-4.46c-.1,0-.1,0-.14.1l-.66,1.93c0,.12,0,.11-.16.11H101.8s-.08,0-.11,0,0-.08,0-.11c.67-1.6,1.34-3.21,2-4.81l.83-2c.85-2,1.66-4,2.5-6a2.51,2.51,0,0,1,.36-.64,1.45,1.45,0,0,1,1.13-.61h3.18c.09,0,.09,0,.11.08s.06.33.1.49l.81,3.88c.28,1.37.57,2.74.85,4.1s.59,2.81.88,4.21l.27,1.29S114.75,21.6,114.75,21.64Zm-7.43-5h3l-1.13-5.27h0Z" transform="translate(-69.65 -7.25)"/>
    <path class="cls-1" d="M79.14,17.08c.19-.48.38-.94.56-1.41s.49-1.25.74-1.87c.82-2.07,1.63-4.14,2.45-6.2l0-.07a.06.06,0,0,1,.08,0h3.65a.21.21,0,0,1,.11,0s0,.07,0,.11q-1.71,4.07-3.4,8.12l-2.42,5.79c-.07.17,0,.14-.21.14H77.1c-.07,0-.1,0-.12-.09-.1-.42-.22-.85-.33-1.27q-1-3.91-2-7.83c-.19-.75-.39-1.49-.58-2.24a1.74,1.74,0,0,0-1-1.2,15,15,0,0,0-1.57-.61A15.55,15.55,0,0,0,69.73,8c-.09,0-.09,0-.08-.1s0-.21,0-.31,0-.07.08-.06h6a2.21,2.21,0,0,1,.77.11,1.64,1.64,0,0,1,1.06,1.29c.16.86.32,1.73.49,2.59s.33,1.73.49,2.59.33,1.73.5,2.6a1.2,1.2,0,0,0,.06.32S79.11,17,79.14,17.08Z" transform="translate(-69.65 -7.25)"/>
    <path class="cls-1" d="M92.13,18l.17.08a7.57,7.57,0,0,0,2.33.75,6.7,6.7,0,0,0,1.18.09,3.4,3.4,0,0,0,1.26-.24,1.92,1.92,0,0,0,.55-.33,1.3,1.3,0,0,0,.31-.39.94.94,0,0,0-.06-1,1.68,1.68,0,0,0-.41-.43,5.71,5.71,0,0,0-.84-.54l-1.05-.57a7.84,7.84,0,0,1-1.4-.95A3.2,3.2,0,0,1,93,11.88a4.07,4.07,0,0,1,.75-2.33A4.49,4.49,0,0,1,95,8.32a6.28,6.28,0,0,1,1.76-.77,8.26,8.26,0,0,1,2.57-.29,9.69,9.69,0,0,1,3.06.57h0c.1,0,.1,0,.08.13-.19.85-.37,1.7-.55,2.55,0,.11,0,.22-.08.33s-.07,0-.1,0A7.31,7.31,0,0,0,99,10.2a3.65,3.65,0,0,0-1.09.12,2.22,2.22,0,0,0-.66.31,1,1,0,0,0-.45.58.77.77,0,0,0,.11.66,1.63,1.63,0,0,0,.36.38,6.49,6.49,0,0,0,.83.53c.44.24.89.46,1.33.72a7.05,7.05,0,0,1,1.3.94,3.5,3.5,0,0,1,1,1.5,3.78,3.78,0,0,1,.15,1.38,4.28,4.28,0,0,1-2,3.46,6.45,6.45,0,0,1-2.1.87,9.54,9.54,0,0,1-2.61.22,11.7,11.7,0,0,1-3.46-.7c-.19-.07-.19-.07-.15-.27l.6-2.8A.18.18,0,0,1,92.13,18Z" transform="translate(-69.65 -7.25)"/>
    <path class="cls-1" d="M85.31,21.64l.21-1c.26-1.26.53-2.52.8-3.78.12-.59.25-1.18.37-1.77.26-1.18.51-2.37.76-3.55l.81-3.81,0-.15c0-.13,0-.13.16-.13h3.39a.25.25,0,0,1,.12,0l-.12.59c-.25,1.19-.51,2.38-.76,3.58s-.51,2.39-.76,3.59-.49,2.3-.73,3.45L89,21.56c0,.09,0,.09-.11.09H85.31Z" transform="translate(-69.65 -7.25)"/>
  </g>
</svg>
