<svg id="Layer_1" data-name="Layer 1" xmlns="http://www.w3.org/2000/svg" viewBox="0 0 469.57 135.26">
  <g>
    <path d="M74.87,9.09H120q23.12,0,31.67,7.63T156,40.2l-1.45,5.41a37.3,37.3,0,0,1-9.32,17q-6.54,6.57-17.13,9.46l-.1.39q20.89,5.41,14.8,28.21l-3.1,11.6a38.24,38.24,0,0,1-18,23.86q-13.82,8.22-36.24,8.21H38.13Zm26.74,55.07q9,0,14.37-3.28t7.46-11l2-7.53q2-7.35-.82-10.63T114,28.41H99.55L89.89,64.16ZM90.65,125q7.92,0,12.55-3t6.61-10.34L113,99.91q2.49-9.27-1-12.85T98,83.49H84.66L73.43,125Z" transform="translate(-38.13 -9.09)"/>
    <path d="M207.82,9.09h40.51l-4.57,135.26H213.68l1.63-26.86-.1.39H181.07l-12.51,26.47H140.67Zm8.7,90.43,4.35-66.85h-.54L189.5,99.52Z" transform="translate(-38.13 -9.09)"/>
    <path d="M293.73,9.09h37.52l8.08,81h.55l21-81h26.65L352.59,144.35h-30.9L311.38,45.61h-.54l-25.79,98.74h-26.8Z" transform="translate(-38.13 -9.09)"/>
    <path d="M409.82,9.09h29.91l-14.6,57,52.66-57H507.7L459.43,58.75,474,144.35H442.55l-10-60.28-16.41,17.19-11,43.09H375Z" transform="translate(-38.13 -9.09)"/>
  </g>
</svg>
