<svg id="Layer_1" data-name="Layer 1" xmlns="http://www.w3.org/2000/svg" viewBox="0 0 523.29 156.7">
  <defs>
    <style>
      .cls-1 {
        fill: #fff;
      }
    </style>
  </defs>
  <path class="cls-1" d="M-313.38-35.58c1.86,1,3.34,1.66,4.73,2.5,10.18,6.08,15.11,15.27,16.07,26.89,1.87,22.53-9.42,38-31.45,42.75a61.75,61.75,0,0,1-12.46,1.56c-22.88.17-45.77.09-68.65.18-3.11,0-3.91-1.54-3.89-4.25,0-7.3,0-14.6,0-21.91q0-52.78,0-105.58c0-4.59.58-5.22,5.11-5.22,21.81,0,43.61-.09,65.42,0,11.8.06,22.51,3.3,30.87,12.14,11.35,12,12.07,32.62,1.71,44.85A31.5,31.5,0,0,1-313.38-35.58Zm-45.93,53.9h14a74.07,74.07,0,0,0,13.95-.9c10.15-1.94,14.9-6.78,16-16.48,1.6-13.6-4.1-21.12-17.71-23.31a34.27,34.27,0,0,0-5.34-.54C-353-23-367.58-23-382.18-23.13c-3.14,0-4.18,1.37-4.15,4.37.09,10.88.11,21.76,0,32.64,0,3.21,1.1,4.54,4.39,4.48C-374.4,18.22-366.86,18.31-359.31,18.32ZM-360.14-43c6.88-.38,15.3.77,23.61-.63,6.79-1.13,12.15-4.22,14.29-11.35,3.47-11.6-2.58-21.71-14.59-23.08-15.37-1.76-30.84-.45-46.27-.69-2.73,0-3.16,1.92-3.15,4.22.05,9.09.11,18.18,0,27.27-.05,3.38,1.42,4.36,4.55,4.3C-375-43.12-368.32-43-360.14-43Z" transform="translate(547.37 118.4)"/>
  <path class="cls-1" d="M-451.32-35.42c24,13,28.06,46.55,7.74,63.48-9.08,7.57-20.17,9.88-31.57,10-22.76.33-45.52.11-68.27.19-3,0-4-1.28-4-4.14q.06-64.26,0-128.53c0-2.46.49-4.3,3.46-4.28,24.08.18,48.17-.77,72.21.45,13.13.67,24,6.59,30.56,18.55C-432.81-64.51-436.66-47.9-451.32-35.42Zm-46.61,53.73c5.75,0,11.51,0,17.26,0,5.29,0,10.52-.39,15.59-2.15,5.8-2,9.51-5.87,10.81-11.88a31.08,31.08,0,0,0,0-13.2c-1.28-6-5-9.91-10.78-11.91a37.4,37.4,0,0,0-12-2.09c-14.51-.09-29-.07-43.51-.19-2.9,0-4.11,1.06-4.09,4q.14,16.71,0,33.41c0,2.93,1.07,4.09,4,4.05C-513,18.23-505.48,18.31-497.93,18.31ZM-498.64-43c6.88-.41,15.52.75,24.08-.64,8.11-1.33,13-6,14.4-13.41,2.07-11.34-3.81-19.85-15.35-21.06-15.26-1.61-30.61-.4-45.91-.64-2.51,0-3.12,1.61-3.1,3.85,0,9.33.09,18.66,0,28,0,3,1.21,4,4.07,4C-513.77-43.1-507.06-43-498.64-43Z" transform="translate(547.37 118.4)"/>
  <path class="cls-1" d="M-37.14,18.49a40.92,40.92,0,0,0-6.46.05c-4.58.71-6.73-1.44-8.76-5.37C-66.15-13.5-80.22-40-94.2-66.61c-.78-1.47-1.37-3.26-3.44-3.19-1.87.06-2.41,1.74-3.13,3.1Q-122.16-26-143.48,14.66c-1.46,2.81-3.15,4-6.39,3.9-5.62-.25-11.26,0-16.89,0-4.47,0-5.09-1-3.05-4.81q25.71-48.12,51.45-96.22,8.72-16.31,17.44-32.59c.77-1.44,1.26-3.28,3.38-3.29s2.64,1.79,3.41,3.23Q-59.67-50.76-25.24,13.66c2.07,3.87,1.52,4.78-2.91,4.82C-31.15,18.51-34.15,18.49-37.14,18.49Z" transform="translate(547.37 118.4)"/>
  <path class="cls-1" d="M-278-98.66c9.95-2.91,14,2.75,18,10.81,12.57,25,25.92,49.63,39,74.4.72,1.35,1.17,3,3.14,3,2.18.07,2.64-1.76,3.39-3.2q21.31-40.5,42.52-81c1.54-3,3.3-4.23,6.66-4.09,5.74.24,11.5,0,17.25.07,3.94,0,4.54,1.07,2.67,4.56Q-168.3-51.22-191.25-8.34c-7.62,14.24-15.19,28.51-22.84,42.73-.85,1.6-1.26,3.87-3.76,3.82-2.29,0-2.7-2.13-3.51-3.64q-34.38-64.23-68.72-128.48c-2-3.69-1.41-4.67,2.71-4.74C-284.25-98.71-281.14-98.66-278-98.66Z" transform="translate(547.37 118.4)"/>
</svg>
