<svg id="Layer_1" data-name="Layer 1" xmlns="http://www.w3.org/2000/svg" viewBox="0 0 72.09 12.58">
  <defs>
    <style>
      .cls-1 {
        fill: #fff;
      }
    </style>
  </defs>
  <g>
    <path class="cls-1" d="M141.13,51l-.08,0c-.24.06-.37.17-.35.45,0,.46,0,.92,0,1.38,0,.26-.1.34-.35.29a4.43,4.43,0,0,0-1.74,0,2.71,2.71,0,0,0-2.09,1.59,4.7,4.7,0,0,0-.13,3.22,2.54,2.54,0,0,0,2.41,1.84,2.05,2.05,0,0,0,1.84-.78c.17.65.17.65.82.65h0c.57,0,.57,0,.57-.57,0-2.47,0-4.94,0-7.41C142.09,50.88,142,50.78,141.13,51Zm-.65,7.38A1.78,1.78,0,0,1,137.65,57a3.69,3.69,0,0,1,.11-1.44,1.74,1.74,0,0,1,1.57-1.27h.17c1.14,0,1.21,0,1.21,1.13v1c0,.52,0,1,0,1.58A.46.46,0,0,1,140.48,58.37Z" transform="translate(-81.66 -47.56)"/>
    <path class="cls-1" d="M146.73,53.12A2.77,2.77,0,0,0,143.39,55a4.69,4.69,0,0,0,0,2.87,2.6,2.6,0,0,0,1.8,1.79,5.4,5.4,0,0,0,2.43.12c.91-.13,1-.27,1.16-1.18.05-.37-.07-.37-.35-.26a4.88,4.88,0,0,1-2.21.29,1.66,1.66,0,0,1-1.51-1.16c-.08-.29-.05-.45.31-.43.6,0,1.2,0,1.8,0s1.22,0,1.83,0c.24,0,.36-.08.37-.33s0-.64,0-1A2.46,2.46,0,0,0,146.73,53.12Zm.21,2.74h-2.08c-.13,0-.28,0-.27-.22a1.57,1.57,0,0,1,2.65-1,2.11,2.11,0,0,1,.21.31C147.81,55.69,147.72,55.85,146.94,55.86Z" transform="translate(-81.66 -47.56)"/>
    <path class="cls-1" d="M109.51,53.28a7.45,7.45,0,0,0-2.4-.18,3,3,0,0,0-2.36,1.18,4.51,4.51,0,0,0-.13,4.32,2.51,2.51,0,0,0,3.74.69c.18-.14.27-.1.3.11s.18.32.41.31a1.88,1.88,0,0,1,.41,0c.43.08.51-.14.5-.51,0-.89,0-1.78,0-2.67h0c0-.88,0-1.77,0-2.66C110,53.48,109.83,53.35,109.51,53.28Zm-1.3,5.2c-1.1.43-2.37.23-2.61-1.34a2.37,2.37,0,0,1,.8-2.54,2.57,2.57,0,0,1,2-.27c.2,0,.2.19.2.35,0,.55,0,1.11,0,1.66h0c0,.52,0,1,0,1.54A.53.53,0,0,1,108.21,58.48Z" transform="translate(-81.66 -47.56)"/>
    <path class="cls-1" d="M135.14,55.39a1.94,1.94,0,0,0-1.26-2,7.07,7.07,0,0,0-4.1,0c-.21.05-.17.18-.17.31v2.84h0v2.24c0,.93,0,.92.91.93.37,0,.48-.13.47-.49,0-1.2,0-2.41,0-3.62,0-.39-.19-.93.09-1.15a2.06,2.06,0,0,1,1.57-.14,1.06,1.06,0,0,1,1,.86,4.17,4.17,0,0,1,.05.71c0,.94,0,1.88,0,2.83,0,1.14-.16,1,1,1,.26,0,.37-.09.37-.36C135.14,58,135.16,56.71,135.14,55.39Z" transform="translate(-81.66 -47.56)"/>
    <path class="cls-1" d="M127.75,53.31a6.77,6.77,0,0,0-3.13-.1,2.6,2.6,0,0,0-2,1.5,4.79,4.79,0,0,0-.25,2.92A2.56,2.56,0,0,0,126.79,59c-.06.68.32.67.72.64h.21c.32,0,.42-.07.42-.4,0-1.82,0-3.64,0-5.45A.44.44,0,0,0,127.75,53.31Zm-1,3h0c0,.52,0,1,0,1.58a.53.53,0,0,1-.35.55,1.75,1.75,0,0,1-2.69-1.59c0-.11,0-.22,0-.34,0-1.81,1.1-2.42,2.73-2.22.24,0,.33.15.32.39C126.74,55.23,126.75,55.78,126.75,56.32Z" transform="translate(-81.66 -47.56)"/>
    <path class="cls-1" d="M93.88,54.49a5.41,5.41,0,0,0-2.12-1.08.71.71,0,0,1-.62-.67,2.61,2.61,0,0,0-.41-1C90,50.34,89.06,49,88.4,47.56a2.58,2.58,0,0,0-.17,2.82c.58,1,1.19,2,1.76,3.09a2.64,2.64,0,0,1,.15,2.37c0,.1-.06.23-.2.24s-.15-.14-.2-.23c-.95-1.84-2.1-3.56-3-5.47a3.54,3.54,0,0,0-.35.78,3.22,3.22,0,0,0,.45,2.54,27.42,27.42,0,0,1,1.7,3,2.52,2.52,0,0,1,0,2c0,.09-.07.2-.2.18s-.12-.1-.16-.18c-.66-1.32-1.46-2.57-2.18-3.86a2.9,2.9,0,0,1-.43-1.33c0-.28-.09-.37-.38-.28a7.25,7.25,0,0,0-2.33,1.15,2.41,2.41,0,0,0,0,4.05A7.41,7.41,0,0,0,86.42,60a11.59,11.59,0,0,0,4.43-.13,6.8,6.8,0,0,0,3.22-1.51A2.34,2.34,0,0,0,93.88,54.49Z" transform="translate(-81.66 -47.56)"/>
    <path class="cls-1" d="M153.45,53.1a10.09,10.09,0,0,0-2.9.21c-.26.06-.36.2-.35.5,0,.9,0,1.8,0,2.7h0V58.8c0,.9,0,.88.9.92.39,0,.5-.13.49-.5,0-1.47,0-2.95,0-4.42,0-.39.15-.52.51-.52H153c.74,0,.74.18.78-.76v-.08C153.78,53.21,153.67,53.11,153.45,53.1Z" transform="translate(-81.66 -47.56)"/>
    <path class="cls-1" d="M101.94,55.27c-.75-.43-1.59-.65-2.31-1.13a1.11,1.11,0,0,1-.56-1.2,1.07,1.07,0,0,1,1-.77,5.07,5.07,0,0,1,1.82.09c.87.21.85.22,1-.67.05-.3,0-.43-.32-.51A6.58,6.58,0,0,0,99.35,51a2.12,2.12,0,0,0-1.5,1.08A2.49,2.49,0,0,0,99,55.43c.74.38,1.54.64,2.24,1.09a1.12,1.12,0,0,1,.53,1.18c-.07.49-.44.68-.85.79a4.56,4.56,0,0,1-2.43-.11c-.84-.24-.84-.24-1,.65a.44.44,0,0,0,.35.55,6.8,6.8,0,0,0,2.1.3,5.16,5.16,0,0,0,1.56-.18,2.21,2.21,0,0,0,1.64-1.49A2.38,2.38,0,0,0,101.94,55.27Z" transform="translate(-81.66 -47.56)"/>
    <path class="cls-1" d="M115.74,53.35a7,7,0,0,0-4.14.06c-.24.06-.15.23-.15.36,0,.92,0,1.84,0,2.75h0v2.25c0,.93,0,.91.91.94.38,0,.51-.09.51-.48,0-1.46,0-2.92,0-4.37,0-.38.13-.51.48-.55a4.4,4.4,0,0,1,1.45.08.93.93,0,0,1,.75.78,2.76,2.76,0,0,1,.06.7c0,1.16,0,2.31,0,3.46,0,.29.12.45.39.37s1,.35,1-.31c.08-1.41,0-2.83,0-4.25A1.83,1.83,0,0,0,115.74,53.35Zm-4,5c0-.62,0-1.25,0-1.87v0C111.69,57.11,111.7,57.74,111.7,58.36Z" transform="translate(-81.66 -47.56)"/>
    <path class="cls-1" d="M121.55,53.29h-1.46c-.27,0-.38-.11-.37-.37s0-.78,0-1.17c0-.92,0-.93-1-.74-.32.06-.42.19-.42.52,0,1.07,0,2.14,0,3.2h0c0,1.13,0,2.25,0,3.38a1.67,1.67,0,0,0,1.3,1.63,3.79,3.79,0,0,0,1.74,0c.13,0,.27-.07.3-.24s.07-.52.12-.78,0-.26-.22-.2a2.31,2.31,0,0,1-.74.09c-.79,0-1.13-.3-1.14-1.09s0-1.75,0-2.62c0-.3.09-.43.4-.42s.62,0,.92,0c.82,0,.72.11.83-.75a.25.25,0,0,0,0-.08C121.93,53.39,121.83,53.28,121.55,53.29Z" transform="translate(-81.66 -47.56)"/>
  </g>
</svg>
